<svg xmlns="http://www.w3.org/2000/svg" xmlns:xlink="http://www.w3.org/1999/xlink" contentStyleType="text/css" data-diagram-type="DESCRIPTION" height="293.75px" preserveAspectRatio="none" style="width:413px;height:293px;" version="1.1" viewBox="0 0 413 293" width="413.5417px" zoomAndPan="magnify"><defs><linearGradient id="g1mw1l7ebb0ebo0" x1="50%" x2="50%" y1="0%" y2="100%"><stop offset="0%" stop-color="#F18E3E"/><stop offset="100%" stop-color="#EC7211"/></linearGradient></defs><g><!--entity owmap--><g class="entity" data-entity="owmap" data-source-line="5" data-uid="ent0002" id="entity_owmap"><rect fill="url(#g1mw1l7ebb0ebo0)" height="58.6918" rx="4.1667" ry="4.1667" style="stroke:#EC7211;stroke-width:1.0417;" width="95.8586" x="147.2292" y="117.0208"/><rect fill="url(#g1mw1l7ebb0ebo0)" height="10.4167" style="stroke:#EC7211;stroke-width:1.0417;" width="15.625" x="222.2545" y="122.2292"/><rect fill="url(#g1mw1l7ebb0ebo0)" height="2.0833" style="stroke:#EC7211;stroke-width:1.0417;" width="4.1667" x="220.1711" y="124.3125"/><rect fill="url(#g1mw1l7ebb0ebo0)" height="2.0833" style="stroke:#EC7211;stroke-width:1.0417;" width="4.1667" x="220.1711" y="128.4792"/><text fill="#FFFFFF" font-family="Verdana" font-size="12.5" lengthAdjust="spacing" textLength="43.7753" x="168.0625" y="156.4251">owmap</text></g><!--entity terrain--><g class="entity" data-entity="terrain" data-source-line="7" data-uid="ent0003" id="entity_terrain"><path d="M6.25,10.4167 L6.25,50.3585 A4.1667,4.1667 0 0 0 10.4167,54.5251 L104.9088,54.5251 A4.1667,4.1667 0 0 0 109.0755,50.3585 L109.0755,16.6667 L98.6588,6.25 L10.4167,6.25 A4.1667,4.1667 0 0 0 6.25,10.4167" fill="#EEEEEE" style="stroke:#ABB6C2;stroke-width:1.0417;"/><path d="M98.6588,6.25 L98.6588,12.5 A4.1667,4.1667 0 0 0 102.8255,16.6667 L109.0755,16.6667" fill="#EEEEEE" style="stroke:#ABB6C2;stroke-width:1.0417;"/><text fill="#4E5D6C" font-family="Verdana" font-size="12.5" lengthAdjust="spacing" textLength="71.5755" x="21.875" y="35.2376">Terrain Map</text></g><!--entity height--><g class="entity" data-entity="height" data-source-line="8" data-uid="ent0004" id="entity_height"><path d="M145.1667,10.4167 L145.1667,50.3585 A4.1667,4.1667 0 0 0 149.3333,54.5251 L241.0005,54.5251 A4.1667,4.1667 0 0 0 245.1671,50.3585 L245.1671,16.6667 L234.7505,6.25 L149.3333,6.25 A4.1667,4.1667 0 0 0 145.1667,10.4167" fill="#EEEEEE" style="stroke:#ABB6C2;stroke-width:1.0417;"/><path d="M234.7505,6.25 L234.7505,12.5 A4.1667,4.1667 0 0 0 238.9171,16.6667 L245.1671,16.6667" fill="#EEEEEE" style="stroke:#ABB6C2;stroke-width:1.0417;"/><text fill="#4E5D6C" font-family="Verdana" font-size="12.5" lengthAdjust="spacing" textLength="68.7505" x="160.7917" y="35.2376">Height Map</text></g><!--entity veg--><g class="entity" data-entity="veg" data-source-line="9" data-uid="ent0005" id="entity_veg"><path d="M281.9375,10.4167 L281.9375,50.3585 A4.1667,4.1667 0 0 0 286.1042,54.5251 L402.1465,54.5251 A4.1667,4.1667 0 0 0 406.3132,50.3585 L406.3132,16.6667 L395.8965,6.25 L286.1042,6.25 A4.1667,4.1667 0 0 0 281.9375,10.4167" fill="#EEEEEE" style="stroke:#ABB6C2;stroke-width:1.0417;"/><path d="M395.8965,6.25 L395.8965,12.5 A4.1667,4.1667 0 0 0 400.0632,16.6667 L406.3132,16.6667" fill="#EEEEEE" style="stroke:#ABB6C2;stroke-width:1.0417;"/><text fill="#4E5D6C" font-family="Verdana" font-size="12.5" lengthAdjust="spacing" textLength="93.1257" x="297.5625" y="35.2376">Vegetation Map</text></g><!--entity xml--><g class="entity" data-entity="xml" data-source-line="11" data-uid="ent0006" id="entity_xml"><path d="M150.2083,242.3854 L150.2083,282.3272 A4.1667,4.1667 0 0 0 154.375,286.4939 L235.9546,286.4939 A4.1667,4.1667 0 0 0 240.1213,282.3272 L240.1213,248.6354 L229.7046,238.2187 L154.375,238.2187 A4.1667,4.1667 0 0 0 150.2083,242.3854" fill="#EEEEEE" style="stroke:#ABB6C2;stroke-width:1.0417;"/><path d="M229.7046,238.2187 L229.7046,244.4687 A4.1667,4.1667 0 0 0 233.8713,248.6354 L240.1213,248.6354" fill="#EEEEEE" style="stroke:#ABB6C2;stroke-width:1.0417;"/><text fill="#4E5D6C" font-family="Verdana" font-size="12.5" lengthAdjust="spacing" textLength="58.6629" x="165.8333" y="267.2063">XML Code</text></g><!--link owmap to xml--><g class="link" data-entity-1="owmap" data-entity-2="xml" data-source-line="14" data-uid="lnk7" id="link_owmap_xml"><path d="M195.1667,176.1562 C195.1667,195.2604 195.1667,213.7917 195.1667,231.6979" fill="none" id="owmap-to-xml" style="stroke:#EC7211;stroke-width:3.125;"/><polygon fill="#EC7211" points="195.1667,237.9479,199.3333,228.5729,195.1667,232.7396,191,228.5729,195.1667,237.9479" style="stroke:#EC7211;stroke-width:3.125;"/></g><!--link terrain to owmap--><g class="link" data-entity-1="terrain" data-entity-2="owmap" data-source-line="15" data-uid="lnk8" id="link_terrain_owmap"><path d="M86.1563,55.0312 C107.7083,72.8854 132.5924,93.5035 155.5507,112.5139" fill="none" id="terrain-to-owmap" style="stroke:#EC7211;stroke-width:3.125;"/><polygon fill="#EC7211" points="160.3646,116.5,155.8011,107.3116,156.353,113.1783,150.4863,113.7301,160.3646,116.5" style="stroke:#EC7211;stroke-width:3.125;"/></g><!--link height to owmap--><g class="link" data-entity-1="height" data-entity-2="owmap" data-source-line="16" data-uid="lnk9" id="link_height_owmap"><path d="M195.1667,55.0312 C195.1667,72.8854 195.1667,91.2396 195.1667,110.25" fill="none" id="height-to-owmap" style="stroke:#EC7211;stroke-width:3.125;"/><polygon fill="#EC7211" points="195.1667,116.5,199.3333,107.125,195.1667,111.2917,191,107.125,195.1667,116.5" style="stroke:#EC7211;stroke-width:3.125;"/></g><!--link veg to owmap--><g class="link" data-entity-1="veg" data-entity-2="owmap" data-source-line="17" data-uid="lnk10" id="link_veg_owmap"><path d="M313.2604,55.0312 C289.9063,72.8854 262.695,93.6945 237.82,112.7049" fill="none" id="veg-to-owmap" style="stroke:#EC7211;stroke-width:3.125;"/><polygon fill="#EC7211" points="232.8542,116.5,242.833,114.1179,236.9924,113.3374,237.7729,107.4968,232.8542,116.5" style="stroke:#EC7211;stroke-width:3.125;"/></g><!--SRC=[NOun3i8m34Ltdy9qxnMGK15Ye1i2LWEcYTh4KM9HZWzDYehO_F-pzRnImuwHnbHB9DynfDxwG94SRadfIebtuhMHGIAUZTNVZKsCClxXvAHdW9ku89wzeeoE0i333epACPBrI0chupot5Af23TlEQ8RxCYxioLq69-vOIQtCXuM-t93ffJrW8tV-z92zMDVhYSBNFENoqMnRYacn97W3]--></g></svg>